<svg width="44" height="44" viewBox="0 0 44 44" fill="none" xmlns="http://www.w3.org/2000/svg">
<path d="M0 16C0 10.3995 0 7.59921 1.08993 5.46009C2.04867 3.57847 3.57847 2.04867 5.46009 1.08993C7.59921 0 10.3995 0 16 0H28C33.6005 0 36.4008 0 38.5399 1.08993C40.4215 2.04867 41.9513 3.57847 42.9101 5.46009C44 7.59921 44 10.3995 44 16V28C44 33.6005 44 36.4008 42.9101 38.5399C41.9513 40.4215 40.4215 41.9513 38.5399 42.9101C36.4008 44 33.6005 44 28 44H16C10.3995 44 7.59921 44 5.46009 42.9101C3.57847 41.9513 2.04867 40.4215 1.08993 38.5399C0 36.4008 0 33.6005 0 28V16Z" fill="white"/>
<path d="M22 26.95V21.45M29.04 27.28C28.068 27.28 27.28 28.0679 27.28 29.04C27.28 30.012 28.068 30.7999 29.04 30.7999C30.012 30.7999 30.8 30.012 30.8 29.04C30.8 28.0679 30.012 27.28 29.04 27.28ZM29.04 27.28L29.04 22.22C29.04 21.7339 28.646 21.34 28.16 21.34H15.84C15.354 21.34 14.96 21.7339 14.96 22.22L14.96 27.28M14.96 27.28C13.988 27.28 13.2 28.0679 13.2 29.04C13.2 30.012 13.988 30.7999 14.96 30.7999C15.932 30.7999 16.72 30.012 16.72 29.04C16.72 28.0679 15.932 27.28 14.96 27.28ZM22 30.7999C21.028 30.7999 20.24 30.012 20.24 29.04C20.24 28.0679 21.028 27.28 22 27.28C22.972 27.28 23.76 28.0679 23.76 29.04C23.76 30.012 22.972 30.7999 22 30.7999ZM16.5 17.6H27.5C28.1075 17.6 28.6 17.1075 28.6 16.5V14.3C28.6 13.6924 28.1075 13.2 27.5 13.2H16.5C15.8925 13.2 15.4 13.6924 15.4 14.3V16.5C15.4 17.1075 15.8925 17.6 16.5 17.6Z" stroke="#3E3E3E" stroke-width="2" stroke-linecap="round"/>
</svg>
