<svg width="44" height="44" viewBox="0 0 44 44" fill="none" xmlns="http://www.w3.org/2000/svg">
<path d="M11.9241 27.4852C14.4595 27.4852 16.5149 29.5406 16.5149 32.076C16.5149 34.6114 14.4595 36.6667 11.9241 36.6667C9.38873 36.6667 7.33337 34.6114 7.33337 32.076C7.33337 29.5406 9.38873 27.4852 11.9241 27.4852ZM11.9241 27.4852L11.9241 11.9242M30.2872 16.5149C32.8226 16.5149 34.8779 14.4596 34.8779 11.9242C34.8779 9.38877 32.8226 7.33341 30.2872 7.33341C27.7518 7.33341 25.6964 9.38877 25.6964 11.9242C25.6964 14.4596 27.7518 16.5149 30.2872 16.5149ZM30.2872 16.5149L30.2872 28.0074C30.2872 30.2165 28.4963 32.0074 26.2872 32.0074L16.5172 32.0074" stroke="#C6C6C6" stroke-width="2" stroke-linecap="round"/>
</svg>
