<svg width="44" height="44" viewBox="0 0 44 44" fill="none" xmlns="http://www.w3.org/2000/svg">
<path d="M0 16C0 10.3995 0 7.59921 1.08993 5.46009C2.04867 3.57847 3.57847 2.04867 5.46009 1.08993C7.59921 0 10.3995 0 16 0H28C33.6005 0 36.4008 0 38.5399 1.08993C40.4215 2.04867 41.9513 3.57847 42.9101 5.46009C44 7.59921 44 10.3995 44 16V28C44 33.6005 44 36.4008 42.9101 38.5399C41.9513 40.4215 40.4215 41.9513 38.5399 42.9101C36.4008 44 33.6005 44 28 44H16C10.3995 44 7.59921 44 5.46009 42.9101C3.57847 41.9513 2.04867 40.4215 1.08993 38.5399C0 36.4008 0 33.6005 0 28V16Z" fill="white"/>
<path d="M19.6 27.2L17.8 32M26.5936 31.9333L24.4723 27.2664M24.4 21.1574L21.9458 23.6M21.9458 23.6L19.6 21.2678M21.9458 23.6V17.6M14.8 27.2C13.4745 27.2 12.4 26.1255 12.4 24.8V16.4C12.4 15.0745 13.4745 14 14.8 14H29.2C30.5255 14 31.6 15.0745 31.6 16.4V24.8C31.6 26.1255 30.5255 27.2 29.2 27.2H14.8Z" stroke="#3E3E3E" stroke-width="2" stroke-linecap="round" stroke-linejoin="round"/>
</svg>
