<svg width="44" height="44" viewBox="0 0 44 44" fill="none" xmlns="http://www.w3.org/2000/svg">
<path d="M0 16C0 10.3995 0 7.59921 1.08993 5.46009C2.04867 3.57847 3.57847 2.04867 5.46009 1.08993C7.59921 0 10.3995 0 16 0H28C33.6005 0 36.4008 0 38.5399 1.08993C40.4215 2.04867 41.9513 3.57847 42.9101 5.46009C44 7.59921 44 10.3995 44 16V28C44 33.6005 44 36.4008 42.9101 38.5399C41.9513 40.4215 40.4215 41.9513 38.5399 42.9101C36.4008 44 33.6005 44 28 44H16C10.3995 44 7.59921 44 5.46009 42.9101C3.57847 41.9513 2.04867 40.4215 1.08993 38.5399C0 36.4008 0 33.6005 0 28V16Z" fill="white"/>
<path d="M26.8001 21.9999H17.1999M26.8001 21.9999C29.451 21.9999 31.6001 19.8509 31.6001 17.1999C31.6001 14.5489 29.451 12.3999 26.8001 12.3999H17.1999C14.5489 12.3999 12.3998 14.549 12.3999 17.2001C12.4 19.851 14.549 21.9999 17.1999 21.9999M26.8001 21.9999C29.451 21.9999 31.6001 24.1489 31.6001 26.7999C31.6001 29.4509 29.451 31.5999 26.8001 31.5999H17.1999C14.549 31.5999 12.4 29.451 12.3999 26.8001C12.3998 24.149 14.5489 21.9999 17.1999 21.9999M27.3997 17.1999H21.3997M27.3997 26.7999H21.3997M16.5997 26.8901V26.7999M16.5997 17.1999V17.1097" stroke="#3E3E3E" stroke-width="2" stroke-linecap="round" stroke-linejoin="round"/>
</svg>
