<svg width="32" height="32" viewBox="0 0 32 32" fill="none" xmlns="http://www.w3.org/2000/svg">
<path d="M8.7999 11.7333V10.5142C8.7999 6.46235 12.0113 3.19995 15.9999 3.19995C19.9885 3.19995 23.1999 6.46235 23.1999 10.5142V11.7333M8.7999 11.7333C7.4799 11.7333 6.3999 12.8304 6.3999 14.1714V26.3619C6.3999 27.7028 7.4799 28.7999 8.7999 28.7999H23.1999C24.5199 28.7999 25.5999 27.7028 25.5999 26.3619V14.1714C25.5999 12.8304 24.5199 11.7333 23.1999 11.7333M8.7999 11.7333H23.1999M15.9999 17.8285C17.3199 17.8285 18.3999 18.9257 18.3999 20.2666C18.3999 21.6076 17.3199 22.7047 15.9999 22.7047C14.6799 22.7047 13.5999 21.6076 13.5999 20.2666C13.5999 18.9257 14.6799 17.8285 15.9999 17.8285Z" stroke="white" stroke-width="2"/>
</svg>
