<svg width="32" height="32" viewBox="0 0 32 32" fill="none" xmlns="http://www.w3.org/2000/svg">
<path d="M21.3672 27.4275L21.3676 23.1425C21.3678 20.7756 19.4491 18.8567 17.0821 18.8567H7.48584C5.11926 18.8567 3.2007 20.7751 3.20043 23.1416L3.19995 27.4275M28.7996 27.4278L28.7999 23.1427C28.8002 20.7758 26.8815 18.8569 24.5145 18.8569M20.5417 5.4139C21.5941 6.19475 22.2762 7.44656 22.2762 8.85766C22.2762 10.2688 21.5941 11.5206 20.5417 12.3014M16.6583 8.85743C16.6583 11.2242 14.7397 13.1428 12.3729 13.1428C10.0062 13.1428 8.08753 11.2242 8.08753 8.85743C8.08753 6.49066 10.0062 4.57202 12.3729 4.57202C14.7397 4.57202 16.6583 6.49066 16.6583 8.85743Z" stroke="white" stroke-width="2" stroke-linecap="round" stroke-linejoin="round"/>
</svg>
