<svg width="24" height="25" viewBox="0 0 24 25" fill="none" xmlns="http://www.w3.org/2000/svg">
<path d="M11.9458 24.4761C18.3794 24.4761 23.6997 19.1558 23.6997 12.7222C23.6997 6.27686 18.3794 0.968262 11.9341 0.968262C5.50049 0.968262 0.191895 6.27686 0.191895 12.7222C0.191895 19.1558 5.51221 24.4761 11.9458 24.4761ZM11.9458 22.9526C6.27393 22.9526 1.71533 18.3823 1.71533 12.7222C1.71533 7.05029 6.27393 2.47998 11.9341 2.47998C17.606 2.47998 22.188 7.05029 22.188 12.7222C22.188 18.3823 17.6177 22.9526 11.9458 22.9526ZM17.9692 12.7104C17.9692 12.5229 17.8872 12.3589 17.7114 12.1831L13.5396 7.99951C13.4224 7.88232 13.2583 7.81201 13.0591 7.81201C12.6841 7.81201 12.4146 8.09326 12.4146 8.46826C12.4146 8.66748 12.4966 8.83154 12.6255 8.96045L14.4653 10.7886L15.9067 12.1011L13.7505 12.019H6.57861C6.18018 12.019 5.89893 12.3003 5.89893 12.7104C5.89893 13.0972 6.18018 13.3901 6.57861 13.3901H13.7505L15.9185 13.3198L14.4653 14.6323L12.6255 16.4487C12.4849 16.5776 12.4146 16.7417 12.4146 16.9526C12.4146 17.3159 12.6841 17.6089 13.0591 17.6089C13.2583 17.6089 13.4224 17.5269 13.5396 17.4097L17.7114 13.2378C17.8755 13.0737 17.9692 12.9097 17.9692 12.7104Z" fill="#CAC7C7"/>
</svg>
