<svg width="21" height="21" viewBox="0 0 21 21" fill="none" xmlns="http://www.w3.org/2000/svg">
<path d="M13.9913 8.42287C14.3819 8.03235 14.3819 7.39919 13.9913 7.00866C13.6008 6.61814 12.9677 6.61814 12.5771 7.00866L13.9913 8.42287ZM7.00866 12.5771C6.61814 12.9677 6.61814 13.6008 7.00866 13.9913C7.39918 14.3819 8.03235 14.3819 8.42287 13.9913L7.00866 12.5771ZM12.5771 13.9913C12.9677 14.3819 13.6008 14.3819 13.9913 13.9913C14.3819 13.6008 14.3819 12.9677 13.9913 12.5771L12.5771 13.9913ZM8.42287 7.00866C8.03235 6.61814 7.39918 6.61814 7.00866 7.00866C6.61814 7.39918 6.61814 8.03235 7.00866 8.42287L8.42287 7.00866ZM17.375 10.5C17.375 14.297 14.297 17.375 10.5 17.375V19.375C15.4015 19.375 19.375 15.4015 19.375 10.5H17.375ZM10.5 17.375C6.70304 17.375 3.625 14.297 3.625 10.5H1.625C1.625 15.4015 5.59847 19.375 10.5 19.375V17.375ZM3.625 10.5C3.625 6.70304 6.70304 3.625 10.5 3.625V1.625C5.59847 1.625 1.625 5.59847 1.625 10.5H3.625ZM10.5 3.625C14.297 3.625 17.375 6.70304 17.375 10.5H19.375C19.375 5.59847 15.4015 1.625 10.5 1.625V3.625ZM12.5771 7.00866L9.79289 9.79289L11.2071 11.2071L13.9913 8.42287L12.5771 7.00866ZM9.79289 9.79289L7.00866 12.5771L8.42287 13.9913L11.2071 11.2071L9.79289 9.79289ZM13.9913 12.5771L11.2071 9.79289L9.79289 11.2071L12.5771 13.9913L13.9913 12.5771ZM11.2071 9.79289L8.42287 7.00866L7.00866 8.42287L9.79289 11.2071L11.2071 9.79289Z" fill="#C21A1A"/>
</svg>
